<svg width="9" height="15" viewBox="0 0 9 15" fill="none" xmlns="http://www.w3.org/2000/svg">
<path fill-rule="evenodd" clip-rule="evenodd" d="M1.5 3C2.32861 3 3 2.32812 3 1.5C3 0.671875 2.32861 0 1.5 0C0.671387 0 0 0.671875 0 1.5C0 2.32812 0.671387 3 1.5 3ZM7.5 3C8.32861 3 9 2.32812 9 1.5C9 0.671875 8.32861 0 7.5 0C6.67139 0 6 0.671875 6 1.5C6 1.93652 6.18652 2.33008 6.48486 2.60449C6.75195 2.84961 7.1084 3 7.5 3ZM3 7.5C3 8.32812 2.32861 9 1.5 9C0.671387 9 0 8.32812 0 7.5C0 6.67188 0.671387 6 1.5 6C2.32861 6 3 6.67188 3 7.5ZM7.5 9C8.32861 9 9 8.32812 9 7.5C9 6.67188 8.32861 6 7.5 6C7.14453 6 6.81787 6.12402 6.56104 6.33008C6.21875 6.60547 6 7.02734 6 7.5C6 8.32812 6.67139 9 7.5 9ZM3 13.5C3 14.3281 2.32861 15 1.5 15C1.05811 15 0.661133 14.8086 0.386719 14.5049C0.146484 14.2393 0 13.8867 0 13.5C0 13.1465 0.122559 12.8213 0.327637 12.5645C0.602539 12.2207 1.02539 12 1.5 12C2.32861 12 3 12.6719 3 13.5ZM7.5 15C8.32861 15 9 14.3281 9 13.5C9 12.6719 8.32861 12 7.5 12C6.67139 12 6 12.6719 6 13.5C6 14.3281 6.67139 15 7.5 15Z" fill="black"/>
</svg>
